<svg width="152" height="20" viewBox="0 0 152 20" fill="none" xmlns="http://www.w3.org/2000/svg">
<path d="M-1.51992e-06 14.7V0.3H2.72V6.94L8.2 0.3H11.52L5.5 7.4L11.9 14.7H8.46L2.72 8.14V14.7H-1.51992e-06ZM12.5 2.4V4.76837e-07H15.22V2.4H12.5ZM12.5 14.7V3.9H15.22V14.7H12.5ZM24.58 14.7V9.6C24.58 9.35333 24.5667 9.03833 24.54 8.655C24.5133 8.27167 24.43 7.88667 24.29 7.5C24.15 7.11333 23.9217 6.79 23.605 6.53C23.2883 6.27 22.84 6.14 22.26 6.14C22.0267 6.14 21.7767 6.17667 21.51 6.25C21.2433 6.32333 20.9933 6.465 20.76 6.675C20.5267 6.885 20.335 7.19333 20.185 7.6C20.035 8.00667 19.96 8.54667 19.96 9.22L18.4 8.48C18.4 7.62667 18.5733 6.82667 18.92 6.08C19.2667 5.33333 19.7883 4.73 20.485 4.27C21.1817 3.81 22.06 3.58 23.12 3.58C23.9667 3.58 24.6567 3.72333 25.19 4.01C25.7233 4.29667 26.1383 4.66 26.435 5.1C26.7317 5.54 26.9433 5.99833 27.07 6.475C27.1967 6.95167 27.2733 7.38667 27.3 7.78C27.3267 8.17333 27.34 8.46 27.34 8.64V14.7H24.58ZM17.2 14.7V3.9H19.62V7.48H19.96V14.7H17.2ZM33.76 15C32.6533 15 31.6783 14.7617 30.835 14.285C29.9917 13.8083 29.3317 13.1517 28.855 12.315C28.3783 11.4783 28.14 10.52 28.14 9.44C28.14 8.26 28.3733 7.23333 28.84 6.36C29.3067 5.48667 29.95 4.80833 30.77 4.325C31.59 3.84167 32.5333 3.6 33.6 3.6C34.7333 3.6 35.6967 3.86667 36.49 4.4C37.2833 4.93333 37.87 5.68333 38.25 6.65C38.63 7.61667 38.7633 8.75333 38.65 10.06H35.96V9.06C35.96 7.96 35.785 7.16833 35.435 6.685C35.085 6.20167 34.5133 5.96 33.72 5.96C32.7933 5.96 32.1117 6.24167 31.675 6.805C31.2383 7.36833 31.02 8.2 31.02 9.3C31.02 10.3067 31.2383 11.085 31.675 11.635C32.1117 12.185 32.7533 12.46 33.6 12.46C34.1333 12.46 34.59 12.3433 34.97 12.11C35.35 11.8767 35.64 11.54 35.84 11.1L38.56 11.88C38.1533 12.8667 37.5117 13.6333 36.635 14.18C35.7583 14.7267 34.8 15 33.76 15ZM30.18 10.06V8.04H37.34V10.06H30.18ZM46.38 14.7C45.6333 14.84 44.9017 14.9017 44.185 14.885C43.4683 14.8683 42.8283 14.7417 42.265 14.505C41.7017 14.2683 41.2733 13.8867 40.98 13.36C40.7133 12.8667 40.5733 12.365 40.56 11.855C40.5467 11.345 40.54 10.7667 40.54 10.12V0.900001H43.26V9.96C43.26 10.38 43.265 10.7583 43.275 11.095C43.285 11.4317 43.3533 11.7 43.48 11.9C43.72 12.28 44.1033 12.4867 44.63 12.52C45.1567 12.5533 45.74 12.5267 46.38 12.44V14.7ZM38.7 6V3.9H46.38V6H38.7ZM47.98 2.4V4.76837e-07H50.7V2.4H47.98ZM47.98 14.7V3.9H50.7V14.7H47.98ZM57.46 15C56.34 15 55.38 14.75 54.58 14.25C53.78 13.75 53.1667 13.07 52.74 12.21C52.3133 11.35 52.1 10.38 52.1 9.3C52.1 8.20667 52.3217 7.23 52.765 6.37C53.2083 5.51 53.8333 4.83333 54.64 4.34C55.4467 3.84667 56.4 3.6 57.5 3.6C58.7733 3.6 59.8417 3.92167 60.705 4.565C61.5683 5.20833 62.12 6.08667 62.36 7.2L59.64 7.92C59.48 7.36 59.2017 6.92333 58.805 6.61C58.4083 6.29667 57.96 6.14 57.46 6.14C56.8867 6.14 56.4167 6.27833 56.05 6.555C55.6833 6.83167 55.4133 7.20833 55.24 7.685C55.0667 8.16167 54.98 8.7 54.98 9.3C54.98 10.24 55.1883 11.0017 55.605 11.585C56.0217 12.1683 56.64 12.46 57.46 12.46C58.0733 12.46 58.54 12.32 58.86 12.04C59.18 11.76 59.42 11.36 59.58 10.84L62.36 11.42C62.0533 12.5667 61.4733 13.45 60.62 14.07C59.7667 14.69 58.7133 15 57.46 15ZM65.36 14.7L69.76 0.3H73.82L78.22 14.7H75.42L71.5 2H72.02L68.16 14.7H65.36ZM68 11.7V9.16H75.6V11.7H68ZM83.04 15.02C82.1933 15.02 81.5033 14.8767 80.97 14.59C80.4367 14.3033 80.0217 13.94 79.725 13.5C79.4283 13.06 79.2167 12.6017 79.09 12.125C78.9633 11.6483 78.8867 11.2133 78.86 10.82C78.8333 10.4267 78.82 10.14 78.82 9.96V3.9H81.58V9C81.58 9.24667 81.5933 9.56167 81.62 9.945C81.6467 10.3283 81.73 10.7133 81.87 11.1C82.01 11.4867 82.2383 11.81 82.555 12.07C82.8717 12.33 83.32 12.46 83.9 12.46C84.1333 12.46 84.3833 12.4233 84.65 12.35C84.9167 12.2767 85.1667 12.135 85.4 11.925C85.6333 11.715 85.825 11.405 85.975 10.995C86.125 10.585 86.2 10.0467 86.2 9.38L87.76 10.12C87.76 10.9733 87.5867 11.7733 87.24 12.52C86.8933 13.2667 86.3717 13.87 85.675 14.33C84.9783 14.79 84.1 15.02 83.04 15.02ZM86.54 14.7V11.12H86.2V3.9H88.94V14.7H86.54ZM97.22 14.7C96.4733 14.84 95.7417 14.9017 95.025 14.885C94.3083 14.8683 93.6683 14.7417 93.105 14.505C92.5417 14.2683 92.1133 13.8867 91.82 13.36C91.5533 12.8667 91.4133 12.365 91.4 11.855C91.3867 11.345 91.38 10.7667 91.38 10.12V0.900001H94.1V9.96C94.1 10.38 94.105 10.7583 94.115 11.095C94.125 11.4317 94.1933 11.7 94.32 11.9C94.56 12.28 94.9433 12.4867 95.47 12.52C95.9967 12.5533 96.58 12.5267 97.22 12.44V14.7ZM89.54 6V3.9H97.22V6H89.54ZM105.98 14.7V9.6C105.98 9.35333 105.967 9.03833 105.94 8.655C105.913 8.27167 105.83 7.88667 105.69 7.5C105.55 7.11333 105.322 6.79 105.005 6.53C104.688 6.27 104.24 6.14 103.66 6.14C103.427 6.14 103.177 6.17667 102.91 6.25C102.643 6.32333 102.393 6.465 102.16 6.675C101.927 6.885 101.735 7.19333 101.585 7.6C101.435 8.00667 101.36 8.54667 101.36 9.22L99.8 8.48C99.8 7.62667 99.9733 6.82667 100.32 6.08C100.667 5.33333 101.188 4.73 101.885 4.27C102.582 3.81 103.46 3.58 104.52 3.58C105.367 3.58 106.057 3.72333 106.59 4.01C107.123 4.29667 107.538 4.66 107.835 5.1C108.132 5.54 108.343 5.99833 108.47 6.475C108.597 6.95167 108.673 7.38667 108.7 7.78C108.727 8.17333 108.74 8.46 108.74 8.64V14.7H105.98ZM98.6 14.7V0.3H101.02V7.7H101.36V14.7H98.6ZM115.2 15C114.113 15 113.16 14.7567 112.34 14.27C111.52 13.7833 110.882 13.1117 110.425 12.255C109.968 11.3983 109.74 10.4133 109.74 9.3C109.74 8.17333 109.973 7.18167 110.44 6.325C110.907 5.46833 111.55 4.8 112.37 4.32C113.19 3.84 114.133 3.6 115.2 3.6C116.287 3.6 117.242 3.84333 118.065 4.33C118.888 4.81667 119.53 5.48833 119.99 6.345C120.45 7.20167 120.68 8.18667 120.68 9.3C120.68 10.42 120.448 11.4083 119.985 12.265C119.522 13.1217 118.878 13.7917 118.055 14.275C117.232 14.7583 116.28 15 115.2 15ZM115.2 12.46C116.073 12.46 116.725 12.165 117.155 11.575C117.585 10.985 117.8 10.2267 117.8 9.3C117.8 8.34 117.582 7.57333 117.145 7C116.708 6.42667 116.06 6.14 115.2 6.14C114.607 6.14 114.12 6.27333 113.74 6.54C113.36 6.80667 113.078 7.17667 112.895 7.65C112.712 8.12333 112.62 8.67333 112.62 9.3C112.62 10.2667 112.838 11.035 113.275 11.605C113.712 12.175 114.353 12.46 115.2 12.46ZM121.88 14.7V3.9H124.28V6.54L124.02 6.2C124.16 5.82667 124.347 5.48667 124.58 5.18C124.813 4.87333 125.1 4.62 125.44 4.42C125.7 4.26 125.983 4.135 126.29 4.045C126.597 3.955 126.913 3.89833 127.24 3.875C127.567 3.85167 127.893 3.86 128.22 3.9V6.44C127.92 6.34667 127.572 6.315 127.175 6.345C126.778 6.375 126.42 6.46667 126.1 6.62C125.78 6.76667 125.51 6.96167 125.29 7.205C125.07 7.44833 124.903 7.735 124.79 8.065C124.677 8.395 124.62 8.76667 124.62 9.18V14.7H121.88ZM129.32 2.4V4.76837e-07H132.04V2.4H129.32ZM129.32 14.7V3.9H132.04V14.7H129.32ZM140.52 14.7C139.773 14.84 139.042 14.9017 138.325 14.885C137.608 14.8683 136.968 14.7417 136.405 14.505C135.842 14.2683 135.413 13.8867 135.12 13.36C134.853 12.8667 134.713 12.365 134.7 11.855C134.687 11.345 134.68 10.7667 134.68 10.12V0.900001H137.4V9.96C137.4 10.38 137.405 10.7583 137.415 11.095C137.425 11.4317 137.493 11.7 137.62 11.9C137.86 12.28 138.243 12.4867 138.77 12.52C139.297 12.5533 139.88 12.5267 140.52 12.44V14.7ZM132.84 6V3.9H140.52V6H132.84ZM143 19.5L145.08 13.78L145.12 15.46L140.42 3.9H143.24L146.4 12.08H145.76L148.9 3.9H151.62L145.52 19.5H143Z" fill="#001735"/>
</svg>
